<?xml version="1.0" encoding="UTF-8"?>
<svg version="1.1" viewBox="0 0 400 220" xmlns="http://www.w3.org/2000/svg">
 <defs>
  <linearGradient id="f" x1="244" x2="247" y1="888.36" y2="1019.4" gradientTransform="matrix(-1 0 0 1 408.66 0)" gradientUnits="userSpaceOnUse">
   <stop stop-color="#0000d4" offset="0"/>
   <stop stop-color="#005" offset="1"/>
  </linearGradient>
  <linearGradient id="g" x1="234" x2="220" y1="49" y2="150" gradientTransform="matrix(-1 0 0 1 408.66 832.36)" gradientUnits="userSpaceOnUse">
   <stop stop-color="#d5d5ff" offset="0"/>
   <stop stop-color="#d5d5ff" stop-opacity="0" offset="1"/>
  </linearGradient>
  <linearGradient id="h" x1="253" x2="248" y1="1011.6" y2="953.36" gradientTransform="matrix(-1 0 0 1 408.66 0)" gradientUnits="userSpaceOnUse">
   <stop stop-color="#2a2aff" offset="0"/>
   <stop stop-color="#8080ff" stop-opacity="0" offset="1"/>
  </linearGradient>
  <filter id="e" x="-.066967" y="-.57676" width="1.1339" height="2.1535">
   <feGaussianBlur stdDeviation="8.7893595"/>
  </filter>
 </defs>
 <g transform="translate(0 -832.36)">
  <path d="m196.34 1016.7c0.58655 0.01 1.0528-0.047 1.3525-0.1852 2.8493-1.2736-9.7326-22.199-9.9013-36.792 47.501 1.9124 185.9 23.579 194.57 20.431 5.6681-2.056-10.912-26.617-12.379-50.922-1.4665-24.305 12.181-48.354 6.1773-50.608-9.1924-3.4508-146.28 13.549-193.61 13.855-2.1065-14.627 4.5722-35.225 1.5168-36.599-10.292-4.6268-159.64 56.593-158.94 65.51 0.67258 8.6381 153.03 74.951 171.21 75.311z" color="#000000" fill="#00112b" stroke="#00112b" stroke-width="9"/>
  <path d="m196.34 1012.7c0.58655 0.01 1.0528-0.047 1.3525-0.1852 2.8493-1.2736-9.7326-22.199-9.9013-36.792 47.501 1.9124 185.9 23.579 194.57 20.431 5.6681-2.0561-10.912-26.617-12.379-50.922-1.4665-24.305 12.181-48.354 6.1773-50.608-9.1924-3.4508-146.28 13.549-193.61 13.855-2.1065-14.627 4.5722-35.225 1.5168-36.599-10.292-4.6268-159.64 56.593-158.94 65.51 0.67258 8.6381 153.03 74.951 171.21 75.311z" color="#000000" fill="url(#f)"/>
  <path transform="matrix(-1 0 0 1 408.66 0)" d="m207.5 926.57c-86.98 2.28-157.5 12.11-157.5 21.94 0 9.8368 70.515 15.963 157.5 13.683 86.985-2.2797 157.5-12.102 157.5-21.939 0-9.8368-70.515-15.963-157.5-13.683z" color="#000000" fill="#0000d4" filter="url(#e)" opacity=".4"/>
  <path d="m182.94 872.39c0.57787 0.0194 1.0257 0.0758 1.3438 0.21875 3.0213 1.3583-3.583 21.724-1.5 36.188 46.8-0.30264 182.38-17.1 191.47-13.688 5.9367 2.2286-7.5751 25.997-6.125 50.031 0.0157 0.26071 0.0433 0.52051 0.0625 0.78125-32.744 1.0368-67.694 1.2314-104.03 0.46875-86.13-1.8-164.65-8.68-223.83-18.53 34.926-18.8 128.15-55.95 142.62-55.47z" color="#000000" fill="url(#g)"/>
  <path d="m27.099 939.74c68.606 22.397 171.51 36.625 286.56 36.625 21.698 0 42.97-0.49675 63.656-1.4688 4.3029 11.566 8.2594 20.048 5.0312 21.219-8.6786 3.148-147.06-18.525-194.56-20.438 0.16864 14.594 12.756 35.539 9.9062 36.813-0.29973 0.1382-0.7572 0.1662-1.3438 0.1562-17.006-0.3366-151.36-58.324-169.25-72.906z" color="#000000" fill="url(#h)"/>
 </g>
</svg>
